<?xml version="1.0" encoding="utf-8"?>
<!-- Generator: Adobe Illustrator 16.0.0, SVG Export Plug-In . SVG Version: 6.00 Build 0)  -->
<!DOCTYPE svg PUBLIC "-//W3C//DTD SVG 1.1//EN" "http://www.w3.org/Graphics/SVG/1.1/DTD/svg11.dtd">
<svg version="1.1" id="Layer_1" xmlns="http://www.w3.org/2000/svg" xmlns:xlink="http://www.w3.org/1999/xlink" x="0px" y="0px"
	 width="40px" height="40px" viewBox="0 0 40 40" enable-background="new 0 0 40 40" xml:space="preserve">
<g>
	<polygon fill="#3D3D3D" points="7.817,29.752 6.946,29.752 6.946,31.202 34.076,31.202 34.076,29.752 33.202,29.752 	"/>
	<polygon fill="#3D3D3D" points="20.51,8.031 6.946,13.053 6.946,14.054 7.817,14.054 33.202,14.054 34.076,14.054 34.076,13.053 	
		"/>
	<polygon fill="#3D3D3D" points="31.388,15.76 33.202,15.76 33.202,14.489 7.817,14.489 7.817,15.759 9.634,15.76 	"/>
	<rect x="9.911" y="16.602" fill="#3D3D3D" width="1.98" height="10.605"/>
	<rect x="19.518" y="16.602" fill="#3D3D3D" width="1.984" height="10.605"/>
	<rect x="24.326" y="16.602" fill="#3D3D3D" width="1.98" height="10.605"/>
	<rect x="14.715" y="16.602" fill="#3D3D3D" width="1.98" height="10.605"/>
	<rect x="29.132" y="16.602" fill="#3D3D3D" width="1.98" height="10.605"/>
	<polygon fill="#3D3D3D" points="31.388,29.317 33.202,29.317 33.202,28.047 7.817,28.047 7.817,29.317 9.634,29.317 	"/>
</g>
</svg>
